<svg xmlns="http://www.w3.org/2000/svg" width="39.853" height="39.853" viewBox="0 0 39.853 39.853">
  <path id="Icon_akar-instagram-fill" data-name="Icon akar-instagram-fill" d="M13.211,1.62c2.125-.1,2.8-.12,8.215-.12s6.09.024,8.213.12a14.664,14.664,0,0,1,4.84.926,10.2,10.2,0,0,1,5.826,5.828,14.655,14.655,0,0,1,.927,4.837c.1,2.128.12,2.806.12,8.217s-.024,6.09-.12,8.215a14.608,14.608,0,0,1-.927,4.837,10.173,10.173,0,0,1-5.826,5.828,14.655,14.655,0,0,1-4.837.927c-2.127.1-2.8.12-8.217.12s-6.09-.024-8.215-.12a14.608,14.608,0,0,1-4.837-.927,9.776,9.776,0,0,1-3.531-2.3,9.767,9.767,0,0,1-2.3-3.529,14.707,14.707,0,0,1-.926-4.837c-.1-2.128-.12-2.806-.12-8.217s.024-6.09.12-8.213a14.664,14.664,0,0,1,.926-4.84,9.775,9.775,0,0,1,2.3-3.529,9.768,9.768,0,0,1,3.527-2.3,14.707,14.707,0,0,1,4.837-.926ZM29.478,5.206c-2.1-.1-2.732-.116-8.052-.116s-5.951.02-8.052.116a11.014,11.014,0,0,0-3.7.687A6.188,6.188,0,0,0,7.382,7.382,6.181,6.181,0,0,0,5.893,9.673a11.014,11.014,0,0,0-.687,3.7c-.1,2.1-.116,2.732-.116,8.052s.02,5.951.116,8.052a11.014,11.014,0,0,0,.687,3.7,6.186,6.186,0,0,0,1.489,2.292A6.185,6.185,0,0,0,9.673,36.96a11.014,11.014,0,0,0,3.7.687c2.1.1,2.73.116,8.052.116s5.951-.02,8.052-.116a11.014,11.014,0,0,0,3.7-.687,6.581,6.581,0,0,0,3.781-3.781,11.014,11.014,0,0,0,.687-3.7c.1-2.1.116-2.732.116-8.052s-.02-5.951-.116-8.052a11.014,11.014,0,0,0-.687-3.7,6.188,6.188,0,0,0-1.489-2.292,6.183,6.183,0,0,0-2.292-1.489,11.014,11.014,0,0,0-3.7-.687Zm-10.6,22.363a6.648,6.648,0,1,0-4.1-6.142,6.646,6.646,0,0,0,4.1,6.142Zm-4.7-13.385a10.242,10.242,0,1,1,0,14.485,10.242,10.242,0,0,1,0-14.485ZM33.94,12.709a2.422,2.422,0,1,0-3.375-.049A2.422,2.422,0,0,0,33.94,12.709Z" transform="translate(-1.5 -1.5)" fill="#ebe8f1"/>
</svg>
