<svg xmlns="http://www.w3.org/2000/svg" width="39.853" height="39.853" viewBox="0 0 39.853 39.853">
  <path id="Icon_corebrands-linkedin" data-name="Icon corebrands-linkedin" d="M33.95,33.962H28.055V24.713c0-2.206-.046-5.04-3.082-5.04-3.074,0-3.542,2.392-3.542,4.877v9.411h-5.9V14.943H21.2v2.594h.076a6.212,6.212,0,0,1,5.593-3.074c5.979,0,7.089,3.937,7.089,9.055V33.961ZM8.861,12.344a3.428,3.428,0,1,1,3.431-3.426,3.425,3.425,0,0,1-3.431,3.426Zm2.957,21.618H5.9V14.944h5.914ZM36.909,0H2.939A2.905,2.905,0,0,0,0,2.873V36.98a2.905,2.905,0,0,0,2.939,2.873H36.9a2.917,2.917,0,0,0,2.95-2.873V2.873A2.917,2.917,0,0,0,36.9,0Z" fill="#ebe8f1"/>
</svg>
