<svg xmlns="http://www.w3.org/2000/svg" width="34.539" height="39.853" viewBox="0 0 34.539 39.853">
  <path id="Icon_akar-tiktok-fill" data-name="Icon akar-tiktok-fill" d="M33.61,9.647a9.075,9.075,0,0,1-.785-.457A11.03,11.03,0,0,1,30.811,7.48,9.487,9.487,0,0,1,28.541,2.8h.007a5.691,5.691,0,0,1-.089-1.67H21.614V27.59c0,.354,0,.707-.014,1.054,0,.043-.005.081-.007.129a.225.225,0,0,1-.005.058v.016a5.809,5.809,0,0,1-2.922,4.612,5.713,5.713,0,0,1-2.834.747,5.812,5.812,0,0,1,0-11.624,5.72,5.72,0,0,1,1.778.283l.009-6.971a12.713,12.713,0,0,0-9.8,2.869A13.43,13.43,0,0,0,4.89,22.378a12.518,12.518,0,0,0-1.511,5.749,13.56,13.56,0,0,0,.735,4.543v.018a13.341,13.341,0,0,0,1.858,3.388,13.914,13.914,0,0,0,2.965,2.8v-.018l.016.018a12.817,12.817,0,0,0,6.987,2.1,12.39,12.39,0,0,0,5.186-1.146,13.011,13.011,0,0,0,4.21-3.165,13.159,13.159,0,0,0,2.3-3.813,14.27,14.27,0,0,0,.825-4.36V14.449c.083.05,1.19.781,1.19.781a15.812,15.812,0,0,0,4.079,1.686,23.546,23.546,0,0,0,4.185.574v-6.8a8.88,8.88,0,0,1-4.3-1.045Z" transform="translate(-3.371 -1.125)" fill="#ebe8f1"/>
</svg>
